<svg id="visual" viewBox="0 0 960 540" width="960" height="540" xmlns="http://www.w3.org/2000/svg" xmlns:xlink="http://www.w3.org/1999/xlink" version="1.1"><rect x="0" y="0" width="960" height="540" fill="#261641"></rect><path d="M0 304L32 309.3C64 314.7 128 325.3 192 330.3C256 335.3 320 334.7 384 330.5C448 326.3 512 318.7 576 319.2C640 319.7 704 328.3 768 328.7C832 329 896 321 928 317L960 313L960 541L928 541C896 541 832 541 768 541C704 541 640 541 576 541C512 541 448 541 384 541C320 541 256 541 192 541C128 541 64 541 32 541L0 541Z" fill="#ff86ad"></path><path d="M0 380L32 382.8C64 385.7 128 391.3 192 398.5C256 405.7 320 414.3 384 410C448 405.7 512 388.3 576 380.7C640 373 704 375 768 387.8C832 400.7 896 424.3 928 436.2L960 448L960 541L928 541C896 541 832 541 768 541C704 541 640 541 576 541C512 541 448 541 384 541C320 541 256 541 192 541C128 541 64 541 32 541L0 541Z" fill="#ff4081"></path><path d="M0 450L32 459C64 468 128 486 192 495C256 504 320 504 384 493.3C448 482.7 512 461.3 576 452.2C640 443 704 446 768 446.2C832 446.3 896 443.7 928 442.3L960 441L960 541L928 541C896 541 832 541 768 541C704 541 640 541 576 541C512 541 448 541 384 541C320 541 256 541 192 541C128 541 64 541 32 541L0 541Z" fill="#c1295b"></path></svg>