<?xml version="1.0" standalone="no"?>
<!DOCTYPE svg PUBLIC "-//W3C//DTD SVG 20010904//EN"
 "http://www.w3.org/TR/2001/REC-SVG-20010904/DTD/svg10.dtd">
<svg version="1.0" xmlns="http://www.w3.org/2000/svg"
 width="1138.000000pt" height="1138.000000pt" viewBox="0 0 1138.000000 1138.000000"
 preserveAspectRatio="xMidYMid meet">
<metadata>
Created by potrace 1.14, written by Peter Selinger 2001-2017
</metadata>
<g transform="translate(0.000000,1138.000000) scale(0.100000,-0.100000)"
fill="#000000" stroke="none">
<path d="M5399 11376 c-2 -2 -58 -7 -124 -10 -66 -4 -127 -9 -135 -11 -8 -2
-47 -6 -85 -9 -39 -4 -80 -8 -90 -10 -11 -2 -42 -7 -70 -10 -27 -4 -77 -11
-110 -17 -33 -6 -69 -12 -80 -13 -616 -103 -1306 -353 -1850 -671 -93 -54
-358 -219 -380 -237 -5 -5 -55 -40 -110 -80 -125 -90 -308 -234 -428 -339
-161 -142 -437 -420 -557 -563 -14 -16 -39 -46 -56 -65 -17 -20 -60 -74 -97
-121 -37 -47 -71 -89 -75 -95 -4 -5 -49 -67 -98 -136 -316 -440 -581 -957
-752 -1464 -71 -210 -149 -491 -176 -635 -3 -14 -7 -36 -10 -50 -3 -14 -10
-50 -16 -80 -6 -30 -12 -66 -15 -80 -14 -62 -54 -374 -60 -455 -4 -49 -9 -97
-12 -105 -9 -24 -11 -696 -2 -800 4 -52 10 -129 14 -170 3 -41 8 -91 11 -110
2 -19 6 -53 9 -75 4 -40 31 -223 39 -260 2 -11 11 -60 21 -110 68 -369 227
-876 380 -1210 112 -244 155 -326 310 -600 116 -205 381 -575 565 -789 213
-247 477 -506 715 -700 66 -54 129 -106 140 -115 50 -40 206 -151 214 -151 5
0 11 -4 13 -9 3 -8 206 -145 283 -190 489 -289 891 -466 1391 -611 89 -26 299
-79 374 -94 14 -3 36 -7 50 -10 14 -3 50 -10 80 -16 30 -6 66 -12 80 -15 121
-25 407 -59 620 -74 110 -9 747 -6 790 2 14 3 64 8 112 12 48 3 95 7 105 9 10
2 45 7 78 10 237 27 537 87 802 161 761 211 1448 565 2073 1069 194 157 471
420 642 611 24 28 55 61 67 75 129 141 367 462 508 686 48 77 94 149 101 159
6 11 15 27 19 35 4 8 17 32 30 52 46 75 201 386 262 528 104 240 172 430 260
725 27 93 85 337 106 450 10 50 19 99 21 110 3 11 7 36 10 55 2 19 11 78 19
130 8 52 17 124 20 160 4 36 8 76 11 90 25 158 25 918 0 1095 -3 17 -7 55 -10
85 -13 120 -19 162 -47 330 -96 568 -275 1107 -534 1615 -105 205 -118 229
-127 233 -5 2 -8 8 -8 13 0 13 -151 257 -238 384 -109 160 -198 278 -327 434
-385 468 -902 912 -1431 1231 -63 39 -119 70 -124 70 -4 0 -10 3 -12 8 -4 8
-38 27 -243 132 -311 158 -638 287 -991 390 -119 35 -371 97 -429 105 -22 4
-47 8 -57 11 -26 7 -213 39 -288 49 -25 3 -62 8 -83 11 -64 10 -89 12 -187 19
-52 4 -102 9 -110 12 -16 6 -705 14 -711 9z"/>
</g>
</svg>
